HIERARCHY
ROOT Hips
{
	OFFSET -338.882294 -555.210510 88.995560
	CHANNELS 6 Xposition Yposition Zposition Zrotation Yrotation Xrotation
	JOINT Spine
	{
		OFFSET 0.000000 2.080078 8.814247
		CHANNELS 6 Xposition Yposition Zposition Zrotation Yrotation Xrotation
		JOINT Spine1
		{
			OFFSET 0.000000 0.000000 8.844139
			CHANNELS 6 Xposition Yposition Zposition Zrotation Yrotation Xrotation
			JOINT Spine2
			{
				OFFSET 0.000000 0.000000 11.682266
				CHANNELS 6 Xposition Yposition Zposition Zrotation Yrotation Xrotation
				JOINT Spine3
				{
					OFFSET 0.000000 0.000000 11.746704
					CHANNELS 6 Xposition Yposition Zposition Zrotation Yrotation Xrotation
					JOINT Neck
					{
						OFFSET 0.000000 0.000000 17.658264
						CHANNELS 6 Xposition Yposition Zposition Zrotation Yrotation Xrotation
						JOINT Neck1
						{
							OFFSET 0.000000 0.000000 5.101517
							CHANNELS 6 Xposition Yposition Zposition Zrotation Yrotation Xrotation
							JOINT Head
							{
								OFFSET 0.000000 0.000000 5.101517
								CHANNELS 6 Xposition Yposition Zposition Zrotation Yrotation Xrotation
								JOINT HeadEnd
								{
									OFFSET 0.000000 0.000000 11.655090
									CHANNELS 6 Xposition Yposition Zposition Zrotation Yrotation Xrotation
									End Site
									{
										OFFSET 0.000000 0.000000 0.100006
									}
								}
							}
						}
					}
					JOINT RightShoulder
					{
						OFFSET -2.625397 0.000000 11.175217
						CHANNELS 6 Xposition Yposition Zposition Zrotation Yrotation Xrotation
						JOINT RightArm
						{
							OFFSET 0.000000 0.000000 10.434723
							CHANNELS 6 Xposition Yposition Zposition Zrotation Yrotation Xrotation
							JOINT RightForeArm
							{
								OFFSET 0.000000 0.000000 29.628418
								CHANNELS 6 Xposition Yposition Zposition Zrotation Yrotation Xrotation
								JOINT RightHand
								{
									OFFSET 0.000000 0.000000 22.857605
									CHANNELS 6 Xposition Yposition Zposition Zrotation Yrotation Xrotation
									JOINT RightHandThumb1
									{
										OFFSET -2.867310 -2.944275 3.959564
										CHANNELS 6 Xposition Yposition Zposition Zrotation Yrotation Xrotation
										JOINT RightHandThumb2
										{
											OFFSET 0.000000 0.000000 3.350403
											CHANNELS 6 Xposition Yposition Zposition Zrotation Yrotation Xrotation
											JOINT RightHandThumb3
											{
												OFFSET 0.000000 0.000000 3.756516
												CHANNELS 6 Xposition Yposition Zposition Zrotation Yrotation Xrotation
												JOINT RightHandThumb4
												{
													OFFSET 0.000000 0.000000 3.147339
													CHANNELS 6 Xposition Yposition Zposition Zrotation Yrotation Xrotation
													End Site
													{
														OFFSET 0.000000 0.000000 0.100006
													}
												}
											}
										}
									}
									JOINT RightHandIndex1
									{
										OFFSET -0.086761 -2.345276 10.030899
										CHANNELS 6 Xposition Yposition Zposition Zrotation Yrotation Xrotation
										JOINT RightHandIndex2
										{
											OFFSET 0.000000 0.000000 4.061096
											CHANNELS 6 Xposition Yposition Zposition Zrotation Yrotation Xrotation
											JOINT RightHandIndex3
											{
												OFFSET 0.000000 0.000000 3.248871
												CHANNELS 6 Xposition Yposition Zposition Zrotation Yrotation Xrotation
												JOINT RightHandIndex4
												{
													OFFSET 0.000000 0.000000 2.639709
													CHANNELS 6 Xposition Yposition Zposition Zrotation Yrotation Xrotation
													End Site
													{
														OFFSET 0.000000 0.000000 0.100006
													}
												}
											}
										}
									}
									JOINT RightHandMiddle1
									{
										OFFSET 0.104095 -0.006775 9.502945
										CHANNELS 6 Xposition Yposition Zposition Zrotation Yrotation Xrotation
										JOINT RightHandMiddle2
										{
											OFFSET 0.000000 0.000000 4.568726
											CHANNELS 6 Xposition Yposition Zposition Zrotation Yrotation Xrotation
											JOINT RightHandMiddle3
											{
												OFFSET 0.000000 0.000000 3.654984
												CHANNELS 6 Xposition Yposition Zposition Zrotation Yrotation Xrotation
												JOINT RightHandMiddle4
												{
													OFFSET 0.000000 0.000000 2.741241
													CHANNELS 6 Xposition Yposition Zposition Zrotation Yrotation Xrotation
													End Site
													{
														OFFSET 0.000000 0.000000 0.100006
													}
												}
											}
										}
									}
									JOINT RightHandRing1
									{
										OFFSET 0.086761 2.267456 8.921707
										CHANNELS 6 Xposition Yposition Zposition Zrotation Yrotation Xrotation
										JOINT RightHandRing2
										{
											OFFSET 0.000000 0.000000 4.061096
											CHANNELS 6 Xposition Yposition Zposition Zrotation Yrotation Xrotation
											JOINT RightHandRing3
											{
												OFFSET 0.000000 0.000000 3.654984
												CHANNELS 6 Xposition Yposition Zposition Zrotation Yrotation Xrotation
												JOINT RightHandRing4
												{
													OFFSET 0.000000 0.000000 2.741241
													CHANNELS 6 Xposition Yposition Zposition Zrotation Yrotation Xrotation
													End Site
													{
														OFFSET 0.000000 0.000000 0.100006
													}
												}
											}
										}
									}
									JOINT RightHandPinky1
									{
										OFFSET -0.173492 4.467224 7.976990
										CHANNELS 6 Xposition Yposition Zposition Zrotation Yrotation Xrotation
										JOINT RightHandPinky2
										{
											OFFSET 0.000000 0.000000 3.350403
											CHANNELS 6 Xposition Yposition Zposition Zrotation Yrotation Xrotation
											JOINT RightHandPinky3
											{
												OFFSET 0.000000 0.000000 2.842758
												CHANNELS 6 Xposition Yposition Zposition Zrotation Yrotation Xrotation
												JOINT RightHandPinky4
												{
													OFFSET 0.000000 0.000000 2.639709
													CHANNELS 6 Xposition Yposition Zposition Zrotation Yrotation Xrotation
													End Site
													{
														OFFSET 0.000000 0.000000 0.100006
													}
												}
											}
										}
									}
									JOINT RightForeArmEnd
									{
										OFFSET 0.000000 0.000000 0.000000
										CHANNELS 6 Xposition Yposition Zposition Zrotation Yrotation Xrotation
										End Site
										{
											OFFSET 0.000000 0.000000 0.100006
										}
									}
								}
								JOINT RightArmEnd
								{
									OFFSET 0.000000 0.000000 0.000000
									CHANNELS 6 Xposition Yposition Zposition Zrotation Yrotation Xrotation
									End Site
									{
										OFFSET 0.000000 0.000000 0.100006
									}
								}
							}
						}
					}
					JOINT LeftShoulder
					{
						OFFSET 2.625397 0.000000 11.175217
						CHANNELS 6 Xposition Yposition Zposition Zrotation Yrotation Xrotation
						JOINT LeftArm
						{
							OFFSET 0.000000 0.000000 10.813629
							CHANNELS 6 Xposition Yposition Zposition Zrotation Yrotation Xrotation
							JOINT LeftForeArm
							{
								OFFSET 0.000000 0.000000 28.724777
								CHANNELS 6 Xposition Yposition Zposition Zrotation Yrotation Xrotation
								JOINT LeftHand
								{
									OFFSET 0.644379 0.328857 25.716171
									CHANNELS 6 Xposition Yposition Zposition Zrotation Yrotation Xrotation
									JOINT LeftHandThumb1
									{
										OFFSET 2.867310 -2.944275 3.959564
										CHANNELS 6 Xposition Yposition Zposition Zrotation Yrotation Xrotation
										JOINT LeftHandThumb2
										{
											OFFSET 0.000000 0.000000 3.350403
											CHANNELS 6 Xposition Yposition Zposition Zrotation Yrotation Xrotation
											JOINT LeftHandThumb3
											{
												OFFSET 0.000000 0.000000 3.756516
												CHANNELS 6 Xposition Yposition Zposition Zrotation Yrotation Xrotation
												JOINT LeftHandThumb4
												{
													OFFSET 0.000000 0.000000 3.100006
													CHANNELS 6 Xposition Yposition Zposition Zrotation Yrotation Xrotation
													End Site
													{
														OFFSET 0.000000 0.000000 0.100006
													}
												}
											}
										}
									}
									JOINT LeftHandIndex1
									{
										OFFSET 0.086761 -2.345276 10.030899
										CHANNELS 6 Xposition Yposition Zposition Zrotation Yrotation Xrotation
										JOINT LeftHandIndex2
										{
											OFFSET 0.000000 0.000000 4.061096
											CHANNELS 6 Xposition Yposition Zposition Zrotation Yrotation Xrotation
											JOINT LeftHandIndex3
											{
												OFFSET 0.000000 0.000000 3.248871
												CHANNELS 6 Xposition Yposition Zposition Zrotation Yrotation Xrotation
												JOINT LeftHandIndex4
												{
													OFFSET 0.000000 0.000000 2.639709
													CHANNELS 6 Xposition Yposition Zposition Zrotation Yrotation Xrotation
													End Site
													{
														OFFSET 0.000000 0.000000 0.100006
													}
												}
											}
										}
									}
									JOINT LeftHandMiddle1
									{
										OFFSET -0.104095 -0.006775 9.502945
										CHANNELS 6 Xposition Yposition Zposition Zrotation Yrotation Xrotation
										JOINT LeftHandMiddle2
										{
											OFFSET 0.000000 0.000000 4.568726
											CHANNELS 6 Xposition Yposition Zposition Zrotation Yrotation Xrotation
											JOINT LeftHandMiddle3
											{
												OFFSET 0.000000 0.000000 3.654984
												CHANNELS 6 Xposition Yposition Zposition Zrotation Yrotation Xrotation
												JOINT LeftHandMiddle4
												{
													OFFSET 0.000000 0.000000 2.741241
													CHANNELS 6 Xposition Yposition Zposition Zrotation Yrotation Xrotation
													End Site
													{
														OFFSET 0.000000 0.000000 0.100006
													}
												}
											}
										}
									}
									JOINT LeftHandRing1
									{
										OFFSET -0.086761 2.267456 8.921707
										CHANNELS 6 Xposition Yposition Zposition Zrotation Yrotation Xrotation
										JOINT LeftHandRing2
										{
											OFFSET 0.000000 0.000000 4.061096
											CHANNELS 6 Xposition Yposition Zposition Zrotation Yrotation Xrotation
											JOINT LeftHandRing3
											{
												OFFSET 0.000000 0.000000 3.654984
												CHANNELS 6 Xposition Yposition Zposition Zrotation Yrotation Xrotation
												JOINT LeftHandRing4
												{
													OFFSET 0.000000 0.000000 2.741241
													CHANNELS 6 Xposition Yposition Zposition Zrotation Yrotation Xrotation
													End Site
													{
														OFFSET 0.000000 0.000000 0.100006
													}
												}
											}
										}
									}
									JOINT LeftHandPinky1
									{
										OFFSET 0.173492 4.467224 7.976990
										CHANNELS 6 Xposition Yposition Zposition Zrotation Yrotation Xrotation
										JOINT LeftHandPinky2
										{
											OFFSET 0.000000 0.000000 3.350403
											CHANNELS 6 Xposition Yposition Zposition Zrotation Yrotation Xrotation
											JOINT LeftHandPinky3
											{
												OFFSET 0.000000 0.000000 2.842758
												CHANNELS 6 Xposition Yposition Zposition Zrotation Yrotation Xrotation
												JOINT LeftHandPinky4
												{
													OFFSET 0.000000 0.000000 2.639709
													CHANNELS 6 Xposition Yposition Zposition Zrotation Yrotation Xrotation
													End Site
													{
														OFFSET 0.000000 0.000000 0.100006
													}
												}
											}
										}
									}
									JOINT LeftForeArmEnd
									{
										OFFSET 0.000000 0.000000 0.000000
										CHANNELS 6 Xposition Yposition Zposition Zrotation Yrotation Xrotation
										End Site
										{
											OFFSET 0.000000 0.000000 0.100006
										}
									}
								}
								JOINT LeftArmEnd
								{
									OFFSET 0.000000 0.000000 0.000000
									CHANNELS 6 Xposition Yposition Zposition Zrotation Yrotation Xrotation
									End Site
									{
										OFFSET 0.000000 0.000000 0.100006
									}
								}
							}
						}
					}
				}
			}
		}
	}
	JOINT RightUpLeg
	{
		OFFSET -11.289948 0.000000 0.000000
		CHANNELS 6 Xposition Yposition Zposition Zrotation Yrotation Xrotation
		JOINT RightLeg
		{
			OFFSET 0.000000 0.000000 -38.200321
			CHANNELS 6 Xposition Yposition Zposition Zrotation Yrotation Xrotation
			JOINT RightFoot
			{
				OFFSET 0.000000 0.000000 -39.900856
				CHANNELS 6 Xposition Yposition Zposition Zrotation Yrotation Xrotation
				JOINT RightToeBase
				{
					OFFSET 0.000000 -15.261658 0.000001
					CHANNELS 6 Xposition Yposition Zposition Zrotation Yrotation Xrotation
					JOINT RightToeBaseEnd
					{
						OFFSET 0.000000 -7.370728 0.000001
						CHANNELS 6 Xposition Yposition Zposition Zrotation Yrotation Xrotation
						End Site
						{
							OFFSET 0.000000 0.000000 0.100000
						}
					}
				}
				JOINT RightLegEnd
				{
					OFFSET 0.000000 0.000000 0.000000
					CHANNELS 6 Xposition Yposition Zposition Zrotation Yrotation Xrotation
					End Site
					{
						OFFSET 0.000000 0.000000 0.100000
					}
				}
			}
			JOINT RightUpLegEnd
			{
				OFFSET 0.000000 0.000000 0.000000
				CHANNELS 6 Xposition Yposition Zposition Zrotation Yrotation Xrotation
				End Site
				{
					OFFSET 0.000000 0.000000 0.099998
				}
			}
		}
	}
	JOINT LeftUpLeg
	{
		OFFSET 11.315674 0.000000 0.000000
		CHANNELS 6 Xposition Yposition Zposition Zrotation Yrotation Xrotation
		JOINT LeftLeg
		{
			OFFSET 0.000000 0.000000 -38.200321
			CHANNELS 6 Xposition Yposition Zposition Zrotation Yrotation Xrotation
			JOINT LeftFoot
			{
				OFFSET 0.000000 0.000000 -39.900856
				CHANNELS 6 Xposition Yposition Zposition Zrotation Yrotation Xrotation
				JOINT LeftToeBase
				{
					OFFSET 0.000000 -15.261658 0.000001
					CHANNELS 6 Xposition Yposition Zposition Zrotation Yrotation Xrotation
					JOINT LeftToeBaseEnd
					{
						OFFSET 0.000000 -7.539978 0.000001
						CHANNELS 6 Xposition Yposition Zposition Zrotation Yrotation Xrotation
						End Site
						{
							OFFSET 0.000000 0.000000 0.100000
						}
					}
				}
				JOINT LeftLegEnd
				{
					OFFSET 0.000000 0.000000 0.000000
					CHANNELS 6 Xposition Yposition Zposition Zrotation Yrotation Xrotation
					End Site
					{
						OFFSET 0.000000 0.000000 0.100000
					}
				}
			}
			JOINT LeftUpLegEnd
			{
				OFFSET 0.000000 0.000000 0.000000
				CHANNELS 6 Xposition Yposition Zposition Zrotation Yrotation Xrotation
				End Site
				{
					OFFSET 0.000000 0.000000 0.099998
				}
			}
		}
	}
}
MOTION
Frames: 2
Frame Time: 0.016667
-6.215271 -6.845215 89.841820 10.690650 2.234383 3.683845 0.000007 2.080098 8.814245 -0.226124 0.625630 0.317133 0.000000 -0.000000 8.844148 -0.262311 0.516021 0.723384 0.000001 0.000005 11.682272 -2.425145 -1.134472 3.634406 -0.000007 -0.000031 11.746691 -0.682429 -3.696587 5.201036 -0.000002 -0.000025 17.658266 5.736386 -11.506777 -2.626418 -0.000005 0.000018 5.101553 11.070327 -4.482299 -5.943492 -0.000012 0.000015 5.101540 0.472556 -0.739546 -12.332987 -0.000029 -0.000004 11.655061 0.000001 0.000001 0.000000 -2.625404 -0.000005 11.175231 9.149456 -73.473328 0.097886 -0.000023 0.000027 10.434723 -71.095036 -17.277532 28.806743 0.000014 0.000061 29.628399 11.959493 1.312424 77.231189 -0.000027 -0.000078 22.857563 -36.353415 -16.256921 3.955992 -2.867316 -2.944260 3.959564 32.925876 -27.761826 36.871212 -0.000008 -0.000015 3.350456 -35.734979 9.847330 -60.076753 -0.000015 -0.000046 3.756554 -23.901704 10.991165 -41.110844 0.000003 0.000012 3.147340 -0.000001 -0.000001 0.000002 -0.086795 -2.345249 10.030926 -118.555473 -69.004636 118.601181 -0.000031 -0.000034 4.061119 -13.836311 -68.517746 20.923287 -0.000019 0.000013 3.248848 -14.336980 -68.519816 20.924370 -0.000011 -0.000013 2.639730 0.000001 0.000001 -0.000000 0.104099 -0.006759 9.502932 -116.517946 -74.982677 120.451124 -0.000019 -0.000016 4.568727 -4.411049 -67.650831 7.334134 -0.000010 0.000009 3.654984 -4.911085 -67.650872 7.329057 -0.000007 -0.000002 2.741266 -0.000000 0.000001 -0.000000 0.086739 2.267450 8.921673 -152.253290 -78.325488 161.324465 -0.000023 -0.000003 4.061087 5.480731 -69.390125 -9.355608 -0.000025 -0.000026 3.654985 6.508704 -69.389101 -9.378994 0.000005 -0.000018 2.741255 0.000001 0.000003 0.000003 -0.173485 4.467233 7.977009 167.136641 -78.499631 -150.950090 -0.000008 -0.000019 3.350410 14.608851 -65.686476 -25.482413 -0.000015 -0.000023 2.842751 16.608891 -65.686530 -25.482454 0.000003 -0.000002 2.639702 0.000001 0.000001 -0.000000 -0.000003 0.000001 -0.000018 -0.000000 0.000000 0.000000 -0.000002 -0.000001 -0.000016 0.000000 0.000001 0.000000 2.625412 0.000004 11.175218 -10.351697 69.214583 -0.027201 0.000006 0.000013 10.813629 84.318207 18.592617 40.790494 -0.000002 0.000042 28.724766 -7.646605 -0.287730 65.716112 0.644369 0.328849 25.716181 32.259188 5.185386 0.251595 2.867275 -2.944290 3.959534 -31.586719 17.619231 50.974586 -0.000011 0.000008 3.350403 13.456779 -8.731307 -24.185326 -0.000011 0.000019 3.756508 8.945638 -6.680276 -16.547294 -0.000001 -0.000001 3.100010 0.000000 0.000000 -0.000000 0.086784 -2.345276 10.030907 195.861084 -83.798751 -2.895141 -0.000014 -0.000019 4.061104 0.500085 -0.000094 -0.000033 -0.000012 -0.000001 3.248879 -0.000010 0.000013 -0.000840 -0.000001 0.000013 2.639728 -0.000000 -0.000000 -0.000000 -0.104065 -0.006798 9.502919 125.649062 81.990021 116.981934 0.000023 0.000025 4.568710 -4.021116 66.431711 -6.891350 -0.000023 0.000031 3.654961 -4.521102 66.431697 -6.897088 -0.000003 -0.000008 2.741241 0.000001 -0.000004 -0.000001 -0.086763 2.267445 8.921692 122.840529 72.815363 120.845540 0.000006 0.000072 4.061111 5.338737 69.107547 9.199292 0.000029 -0.000028 3.654955 6.342771 69.107547 9.205232 -0.000005 0.000005 2.741234 -0.000001 -0.000002 -0.000001 0.173534 4.467236 7.976944 107.550911 65.979327 114.161052 0.000000 -0.000038 3.350410 15.556381 66.474147 26.515486 0.000008 -0.000008 2.842751 17.556409 66.474147 26.516068 0.000006 0.000004 2.639710 -0.000000 -0.000002 -0.000001 0.000002 0.000005 0.000006 -0.000002 0.000000 -0.000001 0.000006 0.000005 0.000002 -0.000001 -0.000000 -0.000000 -11.289984 -0.000073 0.000025 -7.685470 -3.017583 -3.569588 -0.000022 0.000040 -38.200321 -1.125490 0.140920 7.135917 -0.000034 -0.000080 -39.900860 -6.176379 -0.986409 20.356274 0.000004 -15.261671 0.000047 1.070031 0.449726 -25.928061 0.000004 -7.370726 0.000001 -0.000000 0.000000 -0.000000 -0.000031 -0.000058 0.000001 -0.000000 0.000000 -0.000000 -0.000032 -0.000001 -0.000009 0.000000 0.000000 -0.000001 11.315642 -0.000025 0.000009 -6.231729 -0.023814 -7.695631 -0.000049 0.000003 -38.200336 0.038722 -0.006307 9.251148 -0.000034 -0.000061 -39.900848 3.849831 -5.446412 19.532488 -0.000015 -15.261724 0.000046 0.662049 -0.344239 -25.317542 -0.000030 -7.539979 0.000002 0.000000 -0.000001 -0.000000 -0.000003 -0.000002 0.000003 0.000000 0.000000 0.000001 -0.000035 0.000002 -0.000004 -0.000000 -0.000000 -0.000000 
-6.072479 -6.722839 89.849464 11.663986 1.833787 3.372069 -0.000012 2.080088 8.814255 -0.239887 1.114112 0.800205 0.000015 -0.000007 8.844147 -0.297229 0.809672 0.944244 0.000005 -0.000013 11.682267 -3.330451 -1.277449 3.906385 -0.000010 -0.000068 11.746698 -1.143835 -4.123901 5.123505 -0.000013 0.000015 17.658270 6.307884 -11.705737 -2.686649 -0.000013 0.000022 5.101538 11.941618 -4.469490 -6.167980 -0.000005 0.000018 5.101531 0.476392 -0.443435 -12.095083 -0.000001 0.000010 11.655044 -0.000001 0.000001 0.000001 -2.625412 0.000002 11.175220 9.037454 -75.681672 0.100029 -0.000015 0.000028 10.434723 -69.913256 -17.507023 28.376060 -0.000002 0.000061 29.628407 11.974604 1.406967 76.706842 -0.000027 -0.000082 22.857605 -36.110274 -16.278484 4.286695 -2.867303 -2.944244 3.959549 32.925863 -27.761820 36.871243 -0.000023 0.000015 3.350410 -35.734979 9.847260 -60.076780 0.000008 0.000000 3.756500 -23.901641 10.991208 -41.110799 0.000002 -0.000003 3.147352 -0.000000 0.000001 0.000002 -0.086767 -2.345263 10.030914 -119.095891 -68.898447 118.576428 -0.000031 0.000025 4.061134 -13.932979 -68.610445 21.027154 -0.000008 0.000008 3.248871 -14.432926 -68.610302 21.027087 0.000012 0.000003 2.639716 -0.000001 0.000002 0.000005 0.104076 -0.006779 9.502937 -116.600605 -74.971770 120.260848 -0.000013 0.000026 4.568726 -4.412790 -67.656084 7.335618 0.000021 0.000026 3.654985 -4.912841 -67.656111 7.330824 0.000008 -0.000001 2.741242 -0.000001 0.000001 0.000002 0.086735 2.267443 8.921703 -151.768306 -78.517908 160.721892 -0.000040 0.000012 4.061090 5.421497 -69.248399 -9.295925 -0.000023 0.000020 3.654966 6.463932 -69.246821 -9.330269 -0.000025 -0.000005 2.741253 0.000001 0.000001 0.000001 -0.173485 4.467221 7.976944 166.665276 -78.921026 -150.469259 0.000015 -0.000023 3.350418 14.306791 -65.422229 -25.150587 0.000000 -0.000015 2.842758 16.306836 -65.422257 -25.150650 -0.000008 -0.000008 2.639724 0.000001 0.000001 0.000001 0.000007 0.000031 -0.000011 -0.000005 0.000000 -0.000000 -0.000032 0.000001 0.000024 -0.000000 -0.000001 -0.000000 2.625420 0.000021 11.175228 -10.423110 71.480682 -0.029110 -0.000008 0.000002 10.813576 83.568225 19.316122 40.009356 -0.000017 0.000008 28.724773 -6.900481 -0.279369 64.883976 0.644314 0.328795 25.716177 31.352149 5.289805 0.086530 2.867268 -2.944290 3.959557 -31.586712 17.619229 50.974579 0.000004 0.000000 3.350380 13.456743 -8.731325 -24.185237 0.000008 0.000038 3.756489 8.945660 -6.680290 -16.547358 0.000029 -0.000004 3.099992 0.000001 0.000001 0.000001 0.086765 -2.345228 10.030912 194.815218 -83.388823 -1.825380 -0.000004 0.000027 4.061101 0.500085 -0.000087 -0.000026 0.000008 -0.000008 3.248868 -0.000010 0.000011 -0.000856 0.000003 -0.000001 2.639721 -0.000000 0.000000 0.000002 -0.104069 -0.006767 9.502953 123.475040 82.191396 114.791725 0.000019 -0.000010 4.568739 -3.946785 66.183433 -6.816682 0.000006 -0.000017 3.655005 -4.446793 66.183447 -6.818905 0.000005 0.000002 2.741213 -0.000001 -0.000000 0.000001 -0.086790 2.267453 8.921730 122.157920 72.949863 120.377918 0.000013 -0.000029 4.061111 5.286103 68.950705 9.144515 0.000010 0.000009 3.654984 6.286116 68.950712 9.144524 -0.000007 -0.000001 2.741234 0.000000 -0.000002 0.000001 0.173519 4.467180 7.976997 107.049166 66.052854 114.180805 -0.000008 -0.000011 3.350403 15.476483 66.410052 26.431767 0.000023 -0.000004 2.842758 17.476593 66.410114 26.431878 -0.000004 -0.000002 2.639717 0.000000 0.000000 -0.000001 0.000030 -0.000010 0.000026 0.000001 0.000001 -0.000001 0.000009 0.000008 0.000014 -0.000002 0.000000 0.000000 -11.289946 -0.000012 0.000008 -4.500806 -3.084643 -3.431972 0.000008 0.000009 -38.200340 -1.248381 0.147067 6.717802 -0.000021 -0.000056 -39.900867 -4.550089 -1.859477 20.989796 0.000006 -15.261648 0.000043 1.351085 0.363005 -25.920967 -0.000000 -7.370729 -0.000000 0.000000 0.000000 -0.000000 -0.000031 -0.000002 0.000000 0.000000 0.000000 -0.000001 -0.000036 0.000000 -0.000007 -0.000000 0.000000 -0.000000 11.315663 -0.000026 0.000021 -4.970620 0.467002 -6.706448 -0.000044 -0.000023 -38.200329 0.202334 -0.027365 7.702042 -0.000014 -0.000072 -39.900848 1.640065 -4.693088 19.829803 -0.000033 -15.261691 0.000020 0.420480 -0.287818 -25.139162 -0.000023 -7.539981 0.000002 0.000001 0.000000 0.000000 0.000007 -0.000056 0.000002 -0.000001 0.000000 -0.000001 -0.000031 0.000001 0.000002 -0.000000 0.000000 -0.000000 
